<svg t="1523086798128" class="icon" viewBox="0 0 1025 1024" version="1.1" xmlns="http://www.w3.org/2000/svg" p-id="10118" height="200" width="200"><path d="M512.01978 999.036933" p-id="10119" fill="#515151"></path><path d="M738.198282 290.667487c-30.890551 0.084223-58.247581 19.604723-68.256033 48.600265-10.088846 29.231621-0.732481 61.458248 23.293928 80.195223 8.723419 6.809269 10.258567 15.218768 4.565886 24.97838-29.520019 50.536109-59.408832 102.093098-91.390448 157.628966-1.715078 2.980969-6.275859 10.872371-17.307743 10.872371-0.708235 0.059977-1.655102-0.044663-2.58155-0.139095-11.534667-1.142109-22.556342 1.121692-32.530339 6.754397-3.125169 1.739324-6.106138 2.591759-9.167502 2.591759-5.154168 0-9.013094-2.467977-11.459377-4.311942-43.6222-32.70006-87.338831-65.370771-131.129476-97.920251-10.98084-8.164487-7.641286-17.805422-4.67563-22.825599 7.476669-12.630837 9.147084-25.631743 5.078878-39.742856-5.996394-20.856577-24.131049-35.811192-45.121617-37.211074-22.256459-1.450926-42.654916 10.896617-51.318358 30.715725-8.888036 20.362726-3.998021 43.178117 12.477705 58.112314 8.025392 7.277598 9.210889 15.37828 3.617743 24.739749-13.702761 23.024671-27.046938 46.328808-37.130679 64.05894-3.798949 6.674003-9.181539 10.059496-15.995912 10.059496-1.336077 0-2.811248-0.13399-4.456141-0.444083-16.395332-3.065192-33.358528 3.783636-43.224056 17.342198-8.184905 11.255201-10.432117 25.297405-6.150802 38.5178 5.841985 18.06447 18.084888 28.113757 37.406317 30.710621 16.947883 2.272734 34.773723-7.317157 42.608976-22.412143 8.982467-17.32178 7.551959-33.199016-4.375747-48.586228-5.898134-7.591518-6.371567-14.978861-1.476448-23.249264 11.958332-20.247877 24.734645-42.281019 39.05121-67.334688 1.464963-2.5522 5.886649-10.243254 16.320042-10.243254 1.106379 0 2.312293 0.084223 3.638161 0.28457 8.409498 1.241645 16.959368-0.125058 25.048565-4.003125 3.231085-1.565775 6.306486-2.332711 9.376782-2.332711 5.752658 0 9.984206 2.68619 12.661463 4.720294 38.113276 28.672689 83.365056 62.623327 129.903144 97.038466 8.867618 6.534908 10.448706 14.730021 4.67563 24.345434-13.289305 22.088014-11.186292 49.263837 5.344306 69.248838 11.529563 13.932459 28.338351 21.928501 46.119527 21.928501 7.148712 0 14.17109-1.301622 20.896136-3.85765 22.849845-8.703001 36.024301-25.197869 39.150746-49.020102 2.960552-22.645669-4.764957-40.929629-23.618057-55.879139l-0.727377-0.488746c-11.992787-7.795694-7.736994-18.129552-5.353239-22.2169 28.189047-48.167668 56.108837-96.505056 84.033732-144.832236l8.50393-14.735126c4.336188-7.471565 10.59801-10.407871 19.096835-8.443953 8.184905 1.874591 16.764125 2.09408 25.527103 0.653363 38.078822-6.296277 64.503023-39.598657 61.446763-77.468198C807.591319 319.832751 775.784529 290.667487 738.198282 290.667487z" p-id="10120" fill="#515151"></path><path d="M512.01978 0C229.234761 0 0 229.234761 0 512.009571c0 282.760772 229.234761 511.990429 512.01978 511.990429 282.776086 0 512.009571-229.229657 512.009571-511.990429C1024.030626 229.234761 794.80097 0 512.01978 0zM752.749649 456.346092c-10.378521 1.718907-20.666438 1.644893-30.65192-0.20928l-6.919014 11.963437c-27.10181 46.910709-54.204896 93.838008-81.555546 140.609622 23.468754 19.440106 33.845998 45.207116 29.998557 74.622495-4.207301 32.067115-22.60611 55.170904-53.217195 66.830629-9.251724 3.524588-18.927114 5.308576-28.772225 5.308576-24.410515 0-47.435186-10.917035-63.177155-29.953893-21.897875-26.484178-25.247637-62.235393-8.872723-91.939171-45.620572-33.741358-89.860404-66.950582-127.256512-95.089862-11.105898 5.473193-23.203325 7.457528-35.247156 6.02702-13.896728 24.305875-26.364224 45.790293-38.043091 65.599192 16.748811 22.093118 18.812265 46.821382 5.956834 71.591758-10.932348 21.060753-33.372565 34.684396-57.185866 34.684396-2.665773 0-5.358344-0.17993-7.994766-0.528305-27.835568-3.744077-47.037043-19.590686-55.52566-45.829853-6.474931-20.043701-3.080505-41.30863 9.316806-58.347117 14.405892-19.808899 38.935085-30.163174 63.180983-26.408888 10.054391-17.621664 22.601006-39.504225 35.562353-61.317877-22.088014-21.160289-28.702039-53.845036-16.415749-81.984315 12.373065-28.343455 41.464315-46.069759 73.061825-43.93612 30.252501 2.003477 56.34364 23.383255 64.912651 53.172531 5.353239 18.592776 3.598602 36.518151-5.189898 53.337148 42.550276 31.663867 84.576074 63.077619 126.558486 94.536034 13.069815-6.843724 27.271531-9.685598 42.171274-8.449058 31.49925-54.702575 60.998852-105.581955 90.095207-155.420038-29.93858-24.763995-41.397957-65.883763-28.523385-103.189268 13.080024-37.889959 48.815926-63.411957 88.932679-63.506389 49.289359 0 90.783024 38.103067 94.695547 86.745444C836.627697 404.6985 802.287848 448.156083 752.749649 456.346092z" p-id="10121" fill="#515151"></path></svg>