<svg t="1523091101900" class="icon" viewBox="0 0 1024 1024" version="1.1" xmlns="http://www.w3.org/2000/svg" p-id="18564" height="200" width="200"><path d="M449.966 345.7c51.928 0 101.984 14.636 145.418 42.423-16.318-65.109-75.323-113.474-145.419-113.474-70.097 0-129.102 48.366-145.419 113.476 43.433-27.787 93.49-42.424 145.42-42.425z" p-id="18565" fill="#515151"></path><path d="M382.659 418.567c0 34.193 27.818 62.011 62.011 62.011 34.194 0 62.012-27.818 62.012-62.011s-27.819-62.011-62.012-62.011-62.011 27.818-62.011 62.011z m32.587-3.16c0.012-16.251 13.195-29.415 29.446-29.403 16.251 0.012 29.415 13.195 29.403 29.446 0 16.251-13.174 29.424-29.424 29.424-16.251 0-29.424-13.174-29.424-29.424l-0.001-0.043z" p-id="18566" fill="#515151"></path><path d="M449.964 574.46c82.658 0 149.904-67.248 149.904-149.905 0-0.149-0.004-0.297-0.005-0.446a145.804 145.804 0 0 0-0.039-3.035c-0.011-0.461-0.028-0.921-0.043-1.382a151.82 151.82 0 0 0-0.16-3.649c-0.039-0.698-0.084-1.395-0.133-2.091-0.033-0.47-0.065-0.941-0.102-1.411-0.069-0.864-0.147-1.725-0.23-2.585-0.027-0.283-0.051-0.567-0.079-0.85a148.243 148.243 0 0 0-0.414-3.612l-0.004-0.031a153.708 153.708 0 0 0-0.508-3.62l-0.038-0.242c-0.105-0.679-0.223-1.354-0.337-2.03-36.832-25.203-78.949-40.373-123.104-44.497 23.763 11.273 40.238 35.492 40.238 63.493 0 38.73-31.51 70.239-70.24 70.239s-70.239-31.509-70.239-70.239c0-26.677 14.951-49.925 36.912-61.813-39.075 5.765-76.246 20.274-109.19 42.815-0.121 0.718-0.247 1.434-0.358 2.156l-0.008 0.049a148.57 148.57 0 0 0-0.943 7.395c-0.016 0.158-0.029 0.316-0.044 0.473-0.099 0.998-0.188 2-0.268 3.004-0.029 0.37-0.054 0.74-0.081 1.111a153.607 153.607 0 0 0-0.217 3.644 148.38 148.38 0 0 0-0.099 2.591c-0.01 0.323-0.022 0.645-0.03 0.968a153.394 153.394 0 0 0-0.046 3.594c0.001 82.659 67.248 149.905 149.905 149.906z" p-id="18567" fill="#515151"></path><path d="M513.037 61.537c-247.232 0-447.654 200.421-447.654 447.654s200.421 447.654 447.654 447.654 447.654-200.421 447.654-447.654S760.27 61.537 513.037 61.537zM708.708 758.59L537.043 556.483c-24.99 16.549-54.926 26.204-87.078 26.204-87.194 0-158.132-70.938-158.132-158.132 0-1.271 0.018-2.542 0.048-3.814 0.011-0.455 0.031-0.908 0.045-1.361 0.026-0.812 0.054-1.624 0.093-2.436 0.025-0.533 0.058-1.065 0.088-1.597a141.677 141.677 0 0 1 0.265-3.818 175.785 175.785 0 0 1 0.346-3.718c0.094-0.891 0.197-1.78 0.306-2.668 0.041-0.331 0.079-0.664 0.122-0.995 0.332-2.579 0.721-5.147 1.178-7.695l0.301-1.679 0.037-0.025c13.981-72.992 78.296-128.327 155.302-128.327 77.006 0 141.321 55.333 155.302 128.325l0.039 0.027 0.301 1.679c0.459 2.569 0.849 5.149 1.181 7.735 0.037 0.289 0.07 0.579 0.106 0.868 0.116 0.943 0.226 1.887 0.325 2.832 0.044 0.415 0.084 0.83 0.124 1.245a165.48 165.48 0 0 1 0.331 3.885c0.061 0.848 0.114 1.697 0.162 2.546 0.024 0.427 0.05 0.854 0.071 1.282 0.046 0.952 0.08 1.905 0.109 2.859 0.01 0.322 0.024 0.642 0.032 0.964 0.031 1.295 0.051 2.59 0.05 3.885 0 43.009-17.267 82.055-45.223 110.591L734.241 736.9l-25.533 21.69z" p-id="18568" fill="#515151"></path></svg>