<svg t="1523091010790" class="icon" viewBox="0 0 1024 1024" version="1.1" xmlns="http://www.w3.org/2000/svg" p-id="14672" height="200" width="200"><path d="M525.548062 293.293883c-1.77032-5.624091-6.890944-9.812483-13.166881-9.812483-6.315846 0-11.416004 4.188392-13.166881 9.812483 4.329609-0.349971 8.752338-0.660032 13.166881-0.660032C516.782422 292.634874 521.178545 292.944935 525.548062 293.293883zM642.664434 446.505333c0-60.321854-63.329351-117.322056-130.283252-117.322056-66.963111 0-130.297578 57.000202-130.297578 117.322056l0 138.616034c0 31.764448-10.470469 55.706743-24.226774 73.121368l309.009819 0c-13.743002-17.414625-24.201192-41.35692-24.201192-73.121368L642.665457 446.505333zM511.986185 128.08519c-212.028021 0-383.901507 171.879626-383.901507 383.91481 0 212.034161 171.873486 383.91481 383.901507 383.91481 212.047464 0 383.928113-171.880649 383.928113-383.91481C895.914298 299.964816 724.033649 128.08519 511.986185 128.08519zM512.381182 767.93809c-34.215266 0-62.061474-26.127054-64.648392-59.107189 0.447185-2.638083 2.482541-4.693906 5.262864-4.875031l26.619264 0c2.559289 0.206708 4.6673 1.888 5.287423 4.267187 2.108011 13.08297 13.57518 23.167652 27.479865 23.167652 13.879102 0 25.345248-10.058077 27.491121-23.103184 0.607844-2.391467 2.675946-4.123924 5.255701-4.330632l26.619264 0c2.786463 0.181125 4.828982 2.236947 5.255701 4.875031C574.417073 741.811036 546.621007 767.93809 512.381182 767.93809zM716.089723 694.816722 307.624774 694.816722c-10.839883 0-19.624966-8.623401-19.624966-19.289322 0-7.497765 4.376681-13.975293 10.763135-17.168008 8.740058-3.388167 46.101991-20.917402 46.101991-73.238025L344.864934 446.505333c0-67.407226 55.984059-129.603777 125.623116-148.144038l0-1.175779c0-22.663162 18.797112-41.12463 41.893132-41.12463 23.082718 0 41.854247 18.461467 41.854247 41.12463l0 1.175779c69.656453 18.539238 125.648698 80.735789 125.648698 148.144038l0 138.616034c0 48.764634 32.474622 67.303872 43.942815 72.345702 0.01228 0-0.046049 0.013303-0.046049 0.013303 7.117095 2.961448 12.082176 9.864672 12.082176 17.919115C735.863069 686.11555 727.02068 694.816722 716.089723 694.816722z" p-id="14673" fill="#515151"></path></svg>