<svg t="1524387539257" class="icon" viewBox="0 0 1024 1024" version="1.1" xmlns="http://www.w3.org/2000/svg" p-id="1394" height="200" width="200"><path d="M513.65539082 366.68120178m-112.984064 0a112.984064 112.984064 0 1 0 225.968128 0 112.984064 112.984064 0 1 0-225.968128 0Z" p-id="1395" fill="#515151"></path><path d="M513.65539082 518.91040711c-104.43525689 0-189.09684622 84.66523022-189.09684623 189.09927348 0 104.43647052 84.6603757 76.11642311 189.09684623 76.11642311 104.43647052 0 189.10048711 28.32004741 189.1004871-76.11642311 0.00121363-104.43404325-84.66401659-189.09927348-189.1004871-189.09927348z" p-id="1396" fill="#515151"></path><path d="M513.65781808 32.65513245c-265.30429155 0.00364089-480.38130725 215.08065659-480.38130726 480.38130725 0 265.31157333 215.07580208 480.38616178 480.38130726 480.38980267 265.30429155-0.00364089 480.38009363-215.08065659 480.38009362-480.38980267 0.00121363-265.30429155-215.06973392-480.37645275-480.38009362-480.38130725z m0 901.26078103c-232.45255111 0.01092267-420.8928237-188.4366317-420.88675556-420.88554193-0.00606815-232.45012385 188.43420445-420.87947378 420.8843283-420.8806874 232.46104652 0 420.8928237 188.44269985 420.88918281 420.8806874 0.00606815 232.45861925-188.43177718 420.89161008-420.88675555 420.88554193z" p-id="1397" fill="#515151"></path></svg>