<svg t="1523084584804" class="icon" viewBox="0 0 1024 1024" version="1.1" xmlns="http://www.w3.org/2000/svg" p-id="2473" height="200" width="200"><path d="M513.3 214.2m-34.1 0a34.1 34.1 0 1 0 68.2 0 34.1 34.1 0 1 0-68.2 0Z" fill="#FBFCFF" p-id="2474"></path><path d="M513.3 255.3c-22.7 0-41.1-18.4-41.1-41.1s18.4-41.1 41.1-41.1c22.7 0 41.1 18.4 41.1 41.1s-18.4 41.1-41.1 41.1z m0-68.2c-14.9 0-27.1 12.2-27.1 27.1s12.2 27.1 27.1 27.1c14.9 0 27.1-12.2 27.1-27.1s-12.1-27.1-27.1-27.1z" fill="#4D4D4D" p-id="2475"></path><path d="M439.8 127.3l67.4 53.4" fill="#FBFCFF" p-id="2476"></path><path d="M507.2 187.7c-1.5 0-3.1-0.5-4.3-1.5l-67.4-53.4c-3-2.4-3.5-6.8-1.1-9.8 2.4-3 6.8-3.5 9.8-1.1l67.4 53.4c3 2.4 3.5 6.8 1.1 9.8-1.4 1.7-3.5 2.6-5.5 2.6z" fill="#4D4D4D" p-id="2477"></path><path d="M730.5 525.8h60v73.9h-60z" fill="#FBFCFF" p-id="2478"></path><path d="M790.5 606.8h-60c-3.9 0-7-3.1-7-7v-73.9c0-3.9 3.1-7 7-7h60c3.9 0 7 3.1 7 7v73.9c0 3.8-3.1 7-7 7z m-53-14h46v-59.9h-46v59.9z" fill="#4D4D4D" p-id="2479"></path><path d="M234.1 525.8h60v73.9h-60z" fill="#FBFCFF" p-id="2480"></path><path d="M294.1 606.8h-60c-3.9 0-7-3.1-7-7v-73.9c0-3.9 3.1-7 7-7h60c3.9 0 7 3.1 7 7v73.9c0 3.8-3.1 7-7 7z m-53-14h46v-59.9h-46v59.9z" fill="#4D4D4D" p-id="2481"></path><path d="M394.1 860.3m-35.8 0a35.8 35.8 0 1 0 71.6 0 35.8 35.8 0 1 0-71.6 0Z" fill="#FBFCFF" p-id="2482"></path><path d="M394.1 903.1c-23.6 0-42.8-19.2-42.8-42.8 0-23.6 19.2-42.8 42.8-42.8s42.8 19.2 42.8 42.8c0 23.6-19.2 42.8-42.8 42.8z m0-71.7c-15.9 0-28.8 12.9-28.8 28.8s12.9 28.8 28.8 28.8 28.8-12.9 28.8-28.8c0-15.8-12.9-28.8-28.8-28.8z" fill="#4D4D4D" p-id="2483"></path><path d="M513.9 860.3m-35.8 0a35.8 35.8 0 1 0 71.6 0 35.8 35.8 0 1 0-71.6 0Z" fill="#FBFCFF" p-id="2484"></path><path d="M513.9 903.1c-23.6 0-42.8-19.2-42.8-42.8 0-23.6 19.2-42.8 42.8-42.8 23.6 0 42.8 19.2 42.8 42.8 0.1 23.6-19.1 42.8-42.8 42.8z m0-71.7c-15.9 0-28.8 12.9-28.8 28.8S498 889 513.9 889s28.8-12.9 28.8-28.8c0.1-15.8-12.9-28.8-28.8-28.8z" fill="#4D4D4D" p-id="2485"></path><path d="M628.1 860.3m-35.8 0a35.8 35.8 0 1 0 71.6 0 35.8 35.8 0 1 0-71.6 0Z" fill="#FBFCFF" p-id="2486"></path><path d="M628.1 903.1c-23.6 0-42.8-19.2-42.8-42.8 0-23.6 19.2-42.8 42.8-42.8 23.6 0 42.8 19.2 42.8 42.8 0.1 23.6-19.2 42.8-42.8 42.8z m0-71.7c-15.9 0-28.8 12.9-28.8 28.8s12.9 28.8 28.8 28.8 28.8-12.9 28.8-28.8c0.1-15.8-12.9-28.8-28.8-28.8z" fill="#4D4D4D" p-id="2487"></path><path d="M710 847H314c-11.4 0-20.8-9.3-20.8-20.8V439.6c0-120.3 98.5-218.8 218.8-218.8 120.3 0 218.8 98.5 218.8 218.8v386.7c0 11.4-9.4 20.7-20.8 20.7z" fill="#FBFCFF" p-id="2488"></path><path d="M710 854H314c-15.3 0-27.8-12.5-27.8-27.8V439.6c0-60.1 23.6-116.7 66.3-159.5s99.4-66.3 159.5-66.3 116.7 23.6 159.5 66.3 66.3 99.4 66.3 159.5v386.7c0 15.3-12.5 27.7-27.8 27.7zM512 227.8c-56.3 0-109.4 22.1-149.6 62.2s-62.2 93.2-62.2 149.6v386.7c0 7.6 6.2 13.8 13.8 13.8h396c7.6 0 13.8-6.2 13.8-13.8V439.6c0-56.3-22.1-109.4-62.2-149.6s-93.3-62.2-149.6-62.2z" fill="#4D4D4D" p-id="2489"></path><path d="M365.5 340.1c8.9-14.1 19.7-26.9 32.1-38.1" fill="#FBFCFF" p-id="2490"></path><path d="M365.5 347.1c-1.3 0-2.6-0.4-3.7-1.1-3.3-2.1-4.2-6.4-2.2-9.7 9.3-14.6 20.5-27.9 33.3-39.5 2.9-2.6 7.3-2.4 9.9 0.5 2.6 2.9 2.4 7.3-0.5 9.9-11.9 10.7-22.3 23.1-30.9 36.6-1.3 2.2-3.6 3.3-5.9 3.3z" fill="#4D4D4D" p-id="2491"></path><path d="M348.7 374.1c1.7-4.6 3.6-9.2 5.7-13.7" fill="#FBFCFF" p-id="2492"></path><path d="M348.7 381.1c-0.8 0-1.6-0.1-2.4-0.4-3.6-1.3-5.5-5.4-4.1-9 1.8-4.8 3.8-9.6 5.9-14.2 1.6-3.5 5.8-5 9.3-3.4 3.5 1.6 5 5.8 3.4 9.3-2 4.3-3.8 8.7-5.5 13.2-1.1 2.8-3.8 4.5-6.6 4.5z" fill="#4D4D4D" p-id="2493"></path><path d="M510.8 382.7m-55.9 0a55.9 55.9 0 1 0 111.8 0 55.9 55.9 0 1 0-111.8 0Z" fill="#FBFCFF" p-id="2494"></path><path d="M510.8 445.5c-34.7 0-62.9-28.2-62.9-62.9s28.2-62.9 62.9-62.9 62.9 28.2 62.9 62.9-28.3 62.9-62.9 62.9z m0-111.7c-26.9 0-48.9 21.9-48.9 48.9s21.9 48.9 48.9 48.9c26.9 0 48.9-21.9 48.9-48.9s-22-48.9-48.9-48.9z" fill="#4D4D4D" p-id="2495"></path><path d="M510.8 382.7m-7 0a7 7 0 1 0 14 0 7 7 0 1 0-14 0Z" fill="#FBFCFF" p-id="2496"></path><path d="M510.8 396.7c-7.7 0-14-6.3-14-14s6.3-14 14-14 14 6.3 14 14-6.3 14-14 14z" fill="#4D4D4D" p-id="2497"></path><path d="M574.8 644.9H449.2c0-34.7 28.1-62.8 62.8-62.8s62.8 28.1 62.8 62.8z" fill="#00DFD4" p-id="2498"></path><path d="M574.8 651.9H449.2c-3.9 0-7-3.1-7-7 0-38.5 31.3-69.8 69.8-69.8s69.8 31.3 69.8 69.8c0 3.9-3.2 7-7 7z m-118.2-14h110.7c-3.5-27.5-27-48.8-55.4-48.8s-51.8 21.3-55.3 48.8z" fill="#4D4D4D" p-id="2499"></path><path d="M504.6 611.3l22.6 33.6" fill="#FBFCFF" p-id="2500"></path><path d="M527.2 651.9c-2.3 0-4.5-1.1-5.8-3.1l-22.6-33.6c-2.2-3.2-1.3-7.6 1.9-9.7 3.2-2.2 7.6-1.3 9.7 1.9L533 641c2.2 3.2 1.3 7.6-1.9 9.7-1.2 0.8-2.6 1.2-3.9 1.2z" fill="#4D4D4D" p-id="2501"></path><path d="M799.2 690.7h-15.6c-10.5 0-19-8.6-19-19V544.9c0-10.5 8.6-19 19-19h15.6c10.5 0 19 8.6 19 19v126.8c0.1 10.4-8.5 19-19 19z" fill="#FBFCFF" p-id="2502"></path><path d="M799.2 697.7h-15.6c-14.4 0-26-11.7-26-26V544.9c0-14.4 11.7-26 26-26h15.6c14.4 0 26 11.7 26 26v126.8c0.1 14.3-11.6 26-26 26z m-15.6-164.9c-6.6 0-12 5.4-12 12v126.8c0 6.6 5.4 12 12 12h15.6c6.6 0 12-5.4 12-12V544.9c0-6.6-5.4-12-12-12h-15.6z" fill="#4D4D4D" p-id="2503"></path><path d="M225.3 690.7h15.6c10.5 0 19-8.6 19-19V544.9c0-10.5-8.6-19-19-19h-15.6c-10.5 0-19 8.6-19 19v126.8c0 10.4 8.6 19 19 19z" fill="#FBFCFF" p-id="2504"></path><path d="M240.9 697.7h-15.6c-14.4 0-26-11.7-26-26V544.9c0-14.4 11.7-26 26-26h15.6c14.4 0 26 11.7 26 26v126.8c0.1 14.3-11.6 26-26 26z m-15.6-164.9c-6.6 0-12 5.4-12 12v126.8c0 6.6 5.4 12 12 12h15.6c6.6 0 12-5.4 12-12V544.9c0-6.6-5.4-12-12-12h-15.6z" fill="#4D4D4D" p-id="2505"></path><path d="M293.5 529H731" fill="#FBFCFF" p-id="2506"></path><path d="M731 536H293.5c-3.9 0-7-3.1-7-7s3.1-7 7-7H731c3.9 0 7 3.1 7 7s-3.1 7-7 7z" fill="#4D4D4D" p-id="2507"></path></svg>