<svg t="1523087401361" class="icon" viewBox="0 0 1024 1024" version="1.1" xmlns="http://www.w3.org/2000/svg" p-id="11245" height="200" width="200"><path d="M612.744 368.394c0 0-27.787-1.575-29.194 29.194 0 0 0.45 27.675 29.194 29.306 0 0 26.831-0.675 29.306-29.306 0 0-3.656-27.788-29.306-29.194zM436.794 368.394c0 0-28.856 2.25-29.306 29.194 0 0-3.431 27.675 29.306 29.306 0 0 24.806 2.25 29.194-29.306 0 0-0.45-25.875-29.194-29.194zM402.369 668.656c0 0-172.969 82.406-192.656 289.913h283.838l-91.181-289.913zM542.15 958.569h297.619c0 0-23.006-213.075-192.769-289.913l-104.85 289.913zM802.7 753.256c0 0-89.831-152.269-292.781-149.175 0 0-181.462-4.275-271.575 160.875l-0.225-388.969c0 0-28.069-277.594 272.025-310.556 0 0 286.313-1.8 292.556 289.294v398.531zM739.194 349.437c0 0-198.506 17.662-327.712-82.125-129.319-99.563 0 0 0 0v0c0 0-72.45 72.9-108.45 83.194-35.775 10.35 0 0 0 0s-12.15 191.588 210.15 219.15c222.469 27.675 0 0 0 0s202.838 14.906 226.012-217.744c23.175-232.762 0 0 0 0M612.744 368.394c0 0-27.787 0.788-29.194 29.194-1.237 28.519 0 0 0 0s1.35 27 29.194 29.306 2.475-0.225 2.475-0.225 26.381-5.119 26.831-29.081c0.619-23.85 0 0 0 0s-2.475-28.631-29.306-29.194c-26.606-0.731 0 2.25 0 2.25M436.794 368.394c0 0-25.763-0.338-29.306 29.194-3.431 29.588 0 0 0 0s1.575 30.994 29.306 29.25c27.563-1.687 0 0 0 0v0c0 0 25.875 1.688 29.194-29.306 3.544-30.881 0 0 0 0s-2.531-28.575-29.194-29.138c-26.775-0.675 0 0 0 0z" p-id="11246" fill="#d4237a"></path></svg>