<svg t="1523159836895" class="icon" viewBox="0 0 1024 1024" version="1.1" xmlns="http://www.w3.org/2000/svg" p-id="14943" height="200" width="200"><path d="M669.165373 714.428272c111.777561-57.260787 188.614011-173.364263 188.614012-307.295631 0-190.438575-154.985522-345.347305-345.511127-345.347305S166.757131 216.693042 166.757131 407.132641c0 135.805078 79.057258 253.223223 193.403747 309.603469-67.787352 53.232822-109.285424 138.674005-109.440031 229.832562a15.665445 15.665445 0 0 0 4.558338 11.068201 15.645992 15.645992 0 0 0 11.067176 4.577791h499.675493c4.153903 0 8.122482-1.650503 11.058985-4.577791a15.668517 15.668517 0 0 0 4.558337-11.068201c-0.155631-92.781416-42.821956-179.091878-112.473803-232.1404z m-60.909914-461.548051l4.885981 113.255028 50.123282-113.255028h39.586479l8.595517 115.176861 45.623306-115.176861h33.511767l-69.120451 164.894684h-35.3179l-11.106084-123.270673-54.468652 123.270673H584.467532l-10.27469-164.894684h34.062617z m-171.741405 0h122.246789l-4.906459 27.891661h-88.965396l-6.442286 36.544515h82.776009l-4.906458 27.794391h-82.785224l-7.909515 44.869726h92.125106l-4.906458 27.794391H407.443902l29.070152-164.894684z m-145.183867 57.367271l-18.976691 107.528437h-30.924408l29.088582-164.894684h32.382421l48.056058 110.126034 19.431296-110.126034h30.914169l-29.070152 164.894684h-33.396068l-47.505207-107.528437z m221.304622 283.740125c-59.364871 0-114.790855-26.480746-152.126834-72.664117-5.418401-6.6829-10.874686-18.600925 0.08703-29.571856 10.304382-12.864095 25.824436-9.136129 31.261267-2.433776 31.349321 38.814469 70.906107 57.994913 120.778537 57.994913 50.161166 0 86.619675-17.354856 118.016094-56.565569 6.992113-9.927592 16.640184-12.515974 31.696418-1.487705 13.945318 10.855232 12.01427 21.169853 3.02251 31.310413-37.364647 46.647192-93.021006 73.417697-152.735022 73.417697z" fill="#515151" p-id="14944"></path></svg>