<svg t="1523154668613" class="icon" viewBox="0 0 1025 1024" version="1.1" xmlns="http://www.w3.org/2000/svg" p-id="1584" height="200" width="200"><path d="M406.391746 551.801924c-73.70634 0-133.476413-59.770073-133.476413-133.402663 0-73.55509 59.838823-133.247663 133.476413-133.247663 73.62884 0 133.321413 59.692573 133.321413 133.247663C539.713159 492.109351 480.083086 551.801924 406.391746 551.801924L406.391746 551.801924z" p-id="1585" fill="#515151"></path><path d="M512.016875 0C229.23403 0 0 229.23403 0 512.016875 0 794.77597 229.23403 1024 512.016875 1024c282.774095 0 512.006875-229.22403 512.006875-511.983125C1024.025 229.23403 794.79097 0 512.016875 0zM587.603217 502.930614c17.738772 27.567534 48.593809 45.912556 83.721352 45.912556 55.092567 0 99.658872-44.638804 99.658872-99.648872 0-55.072567-44.565054-99.711372-99.658872-99.711372-26.831283 0-51.118812 10.776263-69.052584 28.042534-2.343753-11.446264-5.966257-22.422527-9.975012-32.99379 21.957527-16.73377 49.32631-26.636283 79.101347-26.636283 72.685089 0 131.37266 58.760072 131.37266 131.37266-0.07375 72.472588-58.760072 131.28891-131.44516 131.28891-40.61505 0-76.675094-18.666273-100.781373-47.715058C577.105704 523.410639 582.793211 513.438127 587.603217 502.930614zM406.386746 257.461564c88.936359 0 161.011447 72.075088 161.011447 161.015197 0 88.936359-72.065088 161.083947-161.011447 161.083947-89.076359 0-161.215197-72.075088-161.215197-161.083947C245.171549 329.536652 317.310387 257.461564 406.386746 257.461564zM560.571934 764.458433c0 0 5.420007-121.727649-44.907555-129.297658 0 0-68.192583 43.238803-85.795105 65.65383 0 0-27.710034 21.626276-45.308805-2.406253 0 0-64.516329-64.848829-88.540108-64.848829 0 0-33.602541 29.580036-27.377533 132.973912l-56.078818-0.465001c-0.05375 0.13625-1.733752-134.185164 68.867584-185.443976 0 0 117.123893 88.207608 240.585294 4.816256 0 0 84.990104 48.055059 90.15636 178.548968C612.173247 763.989683 614.04325 765.728435 560.571934 764.458433zM797.672224 716.482125c0 0-6.621258-78.491346-36.537545-86.328855 0 0-55.615068 35.200043-70.063836 53.608815 0 0-22.490027 17.667522-37.070045-1.868752 0 0-12.251265-12.521265-27.041283-25.093781-12.241265-23.026278-27.305033-44.580054-39.282548-60.307574 32.187539 17.060021 103.998877 43.496303 178.545218-6.953758 0 0 55.151317 38.877547 73.48634 126.485154C839.767275 716.017124 841.251027 717.559626 797.672224 716.482125z" p-id="1586" fill="#515151"></path><path d="M512.016875 999.03622" p-id="1587" fill="#515151"></path></svg>